<?xml version="1.0" encoding="utf-8"?>
<!DOCTYPE svg PUBLIC "-//W3C//DTD SVG 1.1//EN" "http://www.w3.org/Graphics/SVG/1.1/DTD/svg11.dtd">
<svg version="1.1" id="Layer_1" xmlns="http://www.w3.org/2000/svg" xmlns:xlink="http://www.w3.org/1999/xlink" x="0px" y="0px"
	  viewBox="0 0 1918.53 1918.65" enable-background="new 0 0 1918.53 1918.65"
	 xml:space="preserve">
<g>
	<path fill-rule="evenodd" clip-rule="evenodd" fill="#010101" d="M1788.93,0H129.59C59.18,4.66,4.63,59.45,0.08,127.53L0,1789
		c4.68,70.041,56.96,123.351,124.38,129.44c1.19,0.16,2.41,0.21,3.6,0.21h1662.6c1.16,0,2.33-0.05,3.49-0.16
		c69.771-6.14,124.461-66.119,124.461-136.58V136.69c0-71.26-55.641-131.24-126.631-136.53C1790.89,0.05,1789.94,0,1788.93,0z
		 M1788.93,39.65c50.399,3.76,89.95,45.53,89.95,97.04v1645.22c0,50.98-38.971,92.75-88.301,97.09h-1662.6
		c-47.7-4.34-85.1-42.35-88.359-90V130.18c3.26-48.76,41.74-87.3,89.97-90.53H1788.93z"/>
</g>
<rect x="230.97" y="660.36" fill-rule="evenodd" clip-rule="evenodd" fill="#010101" width="152.33" height="588.671"/>
<path fill-rule="evenodd" clip-rule="evenodd" fill="#010101" d="M707.46,660.36l-35.23,275.38l-21.68-149.6
	c-6.51-48.28-12.46-90-18.44-125.78h-197.3v588.671h133.35l0.53-388.671l55.85,388.671h94.86l53.65-397.351v397.351h132.82V660.36
	H707.46z"/>
<path fill-rule="evenodd" clip-rule="evenodd" fill="#010101" d="M1143.88,766.6c5.93,3.23,9.75,8.63,11.33,16.26
	c2.23,7.62,2.76,24.93,2.76,51.5v228.22c0,39.021-2.76,62.891-7.63,71.58c-4.87,9.211-18.42,13.551-40.12,13.551V761.15
	C1126.52,761.15,1137.85,762.79,1143.88,766.6z M1142.19,1249.031c36.319,0,64-2.121,81.899-5.931
	c18.42-3.81,33.61-10.851,45.521-21.17c12.439-9.74,21.119-23.82,25.989-41.72c4.88-17.891,8.16-53.15,8.16-105.721V867.98
	c0-55.85-2.17-93.28-5.93-112.23c-3.28-18.95-11.44-36.32-24.99-51.46c-13.55-15.77-33.56-26.57-59.61-33.66
	c-25.51-6.46-68.289-10.271-141.449-10.271H957.91v588.671H1142.19z"/>
<path fill-rule="evenodd" clip-rule="evenodd" fill="#010101" d="M1553.1,1106.52c0,28.16-1.59,46.06-4.35,53.63
	c-2.64,7.57-15.14,11.381-24.351,11.381c-8.68,0-15.189-3.811-17.89-10.801c-3.28-7.09-4.87-23.87-4.87-49.87V955.22
	c0-26.57,1.59-43.35,4.34-49.86c2.7-6.46,8.68-9.75,17.36-9.75c9.22,0,21.66,3.29,24.89,11.39c3.28,7.57,4.87,23.87,4.87,48.22
	V1106.52z M1355.27,660.36v588.671h137.16l9.21-37.371c12.439,15.141,25.99,26.57,41.189,34.141
	c14.611,7.04,36.841,10.85,54.201,10.85c24.359,0,45-5.98,62.369-18.949c17.311-12.49,28.69-27.681,33.561-44.99
	c4.34-17.37,7.09-43.41,7.09-78.67V948.76c0-35.25-1.109-58.55-2.75-69.4c-1.59-10.85-5.93-22.229-13.55-33.61
	c-8.16-11.39-19.48-20.07-34.15-26.58c-14.659-5.93-31.97-9.21-52.569-9.21c-17.36,0-39.59,3.81-54.73,10.27
	c-14.67,7.09-28.221,17.89-40.66,32.03v-191.9H1355.27z"/>
</svg>
